<svg xmlns="http://www.w3.org/2000/svg" viewBox="0 0 720 520" role="img" aria-label="粉色个人博客视觉图">
  <defs>
    <linearGradient id="bg" x1="0" x2="1" y1="0" y2="1">
      <stop offset="0" stop-color="#fff8fb"/>
      <stop offset=".52" stop-color="#ffd8e5"/>
      <stop offset="1" stop-color="#fff0d8"/>
    </linearGradient>
    <linearGradient id="pink" x1="0" x2="1" y1="0" y2="1">
      <stop offset="0" stop-color="#e85d8f"/>
      <stop offset="1" stop-color="#ffb7a5"/>
    </linearGradient>
    <filter id="shadow" x="-20%" y="-20%" width="140%" height="140%">
      <feDropShadow dx="0" dy="20" stdDeviation="22" flood-color="#7e2446" flood-opacity=".2"/>
    </filter>
  </defs>
  <rect width="720" height="520" rx="8" fill="url(#bg)"/>
  <path d="M0 393c72-59 143-77 214-54 105 34 145 123 267 83 73-24 134-88 239-72v170H0z" fill="#fff" opacity=".62"/>
  <g filter="url(#shadow)">
    <rect x="118" y="88" width="420" height="300" rx="8" fill="#fff" opacity=".9"/>
    <rect x="146" y="122" width="126" height="16" rx="8" fill="#ffd4df"/>
    <rect x="146" y="160" width="300" height="20" rx="10" fill="#2b1722"/>
    <rect x="146" y="196" width="244" height="12" rx="6" fill="#9a7a87"/>
    <rect x="146" y="218" width="294" height="12" rx="6" fill="#c4a7b2"/>
    <rect x="146" y="262" width="120" height="84" rx="8" fill="#fff0f4"/>
    <rect x="286" y="262" width="222" height="84" rx="8" fill="#fff8ee"/>
  </g>
  <circle cx="546" cy="142" r="62" fill="url(#pink)" opacity=".95"/>
  <circle cx="556" cy="132" r="22" fill="#fff" opacity=".35"/>
  <g fill="none" stroke="#bf315f" stroke-linecap="round" stroke-width="5" opacity=".55">
    <path d="M580 274c33-30 61-29 84 3"/>
    <path d="M76 122c29 12 54 5 75-22"/>
    <path d="M92 421c31 16 62 10 94-18"/>
  </g>
  <g fill="#bf315f" opacity=".35">
    <circle cx="616" cy="72" r="7"/>
    <circle cx="86" cy="268" r="6"/>
    <circle cx="612" cy="416" r="5"/>
  </g>
</svg>
